<?xml version="1.0" encoding="UTF-8" ?>
<!DOCTYPE svg PUBLIC "-//W3C//DTD SVG 1.1//EN" "http://www.w3.org/Graphics/SVG/1.1/DTD/svg11.dtd">
<svg width="36pt" height="58pt" viewBox="0 0 36 58" version="1.1" xmlns="http://www.w3.org/2000/svg">
<g id="#ffd800ff">
<path fill="#ffd800" opacity="1.00" d=" M 4.91 0.00 L 6.07 0.00 C 7.72 3.27 10.22 6.30 10.98 9.90 C 10.96 25.93 11.12 41.97 10.89 58.00 L 0.00 58.00 L 0.00 8.99 C 1.57 5.96 3.25 2.98 4.91 0.00 M 1.85 9.99 C 4.28 10.01 6.71 10.01 9.14 9.99 C 7.98 7.70 6.75 5.45 5.52 3.20 C 4.27 5.45 3.03 7.71 1.85 9.99 M 2.00 12.00 C 2.00 25.00 2.00 38.00 2.00 51.00 C 4.31 51.00 6.63 51.00 8.94 51.00 C 8.94 38.00 8.94 25.00 8.94 12.00 C 6.63 12.00 4.31 12.00 2.00 12.00 M 2.00 53.00 C 2.00 53.75 2.00 55.25 2.00 56.00 C 4.31 56.00 6.63 56.00 8.94 55.99 C 8.94 55.25 8.94 53.75 8.94 53.01 C 6.63 53.00 4.31 53.00 2.00 53.00 Z" />
<path fill="#ffd800" opacity="1.00" d=" M 20.11 0.00 L 36.00 0.00 L 36.00 58.00 L 20.14 58.00 C 19.88 38.67 19.95 19.33 20.11 0.00 M 22.00 2.06 C 22.00 3.70 22.00 5.34 22.00 6.99 C 23.30 7.00 24.60 7.02 25.90 7.03 C 25.91 7.51 25.92 8.48 25.92 8.96 C 24.61 8.98 23.31 9.00 22.00 9.02 C 22.00 10.67 22.00 12.33 22.00 13.99 C 23.95 14.00 25.90 14.00 27.85 14.04 C 27.85 14.52 27.86 15.48 27.86 15.96 C 25.91 16.00 23.96 16.00 22.00 16.01 C 22.00 17.67 22.00 19.32 22.00 20.98 C 23.31 21.00 24.62 21.02 25.92 21.04 C 25.92 21.52 25.91 22.49 25.90 22.97 C 24.60 22.98 23.30 23.00 22.00 23.01 C 22.00 24.67 22.00 26.33 22.00 27.99 C 23.95 28.00 25.90 28.00 27.85 28.04 C 27.85 28.51 27.87 29.47 27.88 29.95 C 25.92 30.00 23.96 30.00 22.00 30.01 C 22.00 31.67 22.00 33.33 22.00 34.98 C 23.30 35.00 24.61 35.02 25.91 35.04 C 25.91 35.52 25.91 36.48 25.91 36.97 C 24.60 36.98 23.30 37.00 22.00 37.01 C 22.00 38.67 22.00 40.33 22.00 41.99 C 23.95 42.00 25.90 42.00 27.85 42.04 C 27.86 42.52 27.87 43.47 27.87 43.95 C 25.92 43.99 23.96 44.00 22.00 44.01 C 22.00 45.67 22.00 47.33 22.00 48.98 C 23.30 49.00 24.61 49.02 25.92 49.04 C 25.92 49.52 25.91 50.48 25.91 50.96 C 24.61 50.98 23.30 51.00 22.00 51.02 C 22.00 52.68 22.00 54.34 22.00 56.00 C 26.00 56.00 30.00 56.00 34.00 56.00 C 34.00 38.02 34.01 20.04 33.99 2.06 C 30.00 2.06 26.00 2.06 22.00 2.06 Z" />
</g>
</svg>
