<?xml version="1.0" encoding="UTF-8" ?>
<!DOCTYPE svg PUBLIC "-//W3C//DTD SVG 1.1//EN" "http://www.w3.org/Graphics/SVG/1.1/DTD/svg11.dtd">
<svg width="56pt" height="60pt" viewBox="0 0 56 60" version="1.1" xmlns="http://www.w3.org/2000/svg">
<g id="#c83b3bdc">
<path fill="#c83b3b" opacity="0.86" d=" M 25.99 0.00 L 30.01 0.00 C 34.75 2.05 36.93 7.02 38.67 11.53 C 43.46 10.92 48.87 10.00 53.19 12.77 C 55.54 14.22 56.39 17.27 55.73 19.85 C 54.92 23.78 52.32 26.93 49.93 30.00 C 52.69 33.53 55.81 37.34 55.93 42.04 C 56.02 44.63 54.27 46.98 51.92 47.94 C 47.74 49.83 43.04 49.02 38.67 48.47 C 36.93 52.98 34.75 57.96 30.00 60.00 L 25.99 60.00 C 21.25 57.95 19.06 52.98 17.33 48.46 C 12.94 49.02 8.21 49.83 4.03 47.92 C 1.67 46.95 -0.05 44.56 0.07 41.96 C 0.23 37.29 3.32 33.51 6.07 30.00 C 3.48 26.70 0.67 23.23 0.12 18.92 C -0.27 16.33 1.03 13.60 3.38 12.41 C 7.67 10.08 12.73 10.94 17.33 11.54 C 19.07 7.02 21.24 2.04 25.99 0.00 M 19.57 12.00 C 22.39 12.97 25.21 13.94 28.00 15.02 C 30.78 13.94 33.60 12.97 36.43 11.99 C 34.56 8.05 32.50 1.78 27.13 2.21 C 22.87 3.57 21.30 8.32 19.57 12.00 M 2.45 17.00 C 1.99 21.47 5.25 25.08 7.92 28.26 C 10.21 26.05 13.05 24.39 15.07 21.93 C 15.74 19.26 16.03 16.51 16.63 13.82 C 11.96 13.09 4.98 11.82 2.45 17.00 M 39.36 13.83 C 39.97 16.52 40.27 19.28 40.93 21.96 C 42.98 24.39 45.79 26.07 48.09 28.26 C 50.74 25.07 54.00 21.48 53.56 17.02 C 51.04 11.82 44.02 13.09 39.36 13.83 M 18.97 14.29 C 18.48 16.42 18.07 18.56 17.69 20.71 C 20.10 19.14 22.60 17.71 25.17 16.41 C 23.11 15.69 21.04 14.98 18.97 14.29 M 30.88 16.42 C 33.43 17.73 35.91 19.16 38.31 20.71 C 37.93 18.56 37.52 16.42 37.03 14.29 C 34.97 14.98 32.92 15.68 30.88 16.42 M 17.18 23.92 C 17.10 27.96 17.10 32.00 17.17 36.03 C 20.56 38.52 24.22 40.58 28.00 42.39 C 31.78 40.58 35.44 38.52 38.83 36.04 C 38.89 32.01 38.89 27.99 38.82 23.96 C 35.43 21.49 31.79 19.39 28.00 17.60 C 24.23 19.42 20.58 21.48 17.18 23.92 M 9.80 29.97 C 11.41 31.53 13.07 33.05 14.79 34.47 C 14.92 31.49 14.92 28.51 14.79 25.53 C 13.08 26.95 11.43 28.45 9.80 29.97 M 41.21 25.52 C 41.10 28.50 41.11 31.49 41.20 34.47 C 42.92 33.05 44.57 31.55 46.20 30.02 C 44.58 28.46 42.93 26.95 41.21 25.52 M 2.45 43.01 C 5.00 48.18 11.97 46.91 16.64 46.17 C 16.03 43.48 15.74 40.72 15.07 38.05 C 13.02 35.59 10.20 33.92 7.87 31.74 C 5.27 34.97 1.98 38.54 2.45 43.01 M 40.93 38.05 C 40.25 40.73 39.98 43.50 39.38 46.20 C 44.05 46.89 51.01 48.18 53.55 43.02 C 54.02 38.54 50.75 34.93 48.09 31.74 C 45.79 33.94 42.97 35.61 40.93 38.05 M 17.69 39.28 C 18.07 41.43 18.48 43.58 18.97 45.71 C 21.03 45.02 23.08 44.31 25.12 43.58 C 22.57 42.27 20.09 40.85 17.69 39.28 M 30.88 43.58 C 32.92 44.31 34.97 45.02 37.03 45.71 C 37.52 43.58 37.93 41.44 38.31 39.29 C 35.92 40.85 33.43 42.27 30.88 43.58 M 19.57 48.00 C 21.44 51.99 23.51 58.16 28.89 57.84 C 33.10 56.35 34.71 51.72 36.43 48.00 C 33.61 47.03 30.78 46.06 28.00 44.98 C 25.22 46.06 22.39 47.03 19.57 48.00 Z" />
<path fill="#c83b3b" opacity="0.86" d=" M 26.32 25.33 C 29.37 24.29 33.16 26.59 32.82 29.99 C 33.27 33.98 27.99 36.34 25.04 33.95 C 21.96 31.85 22.74 26.44 26.32 25.33 M 25.27 30.00 C 25.61 31.44 27.12 32.12 28.09 33.10 C 29.08 32.06 30.07 31.01 31.08 29.98 C 30.06 28.97 29.05 27.94 28.03 26.93 C 27.05 27.89 25.69 28.60 25.27 30.00 Z" />
</g>
</svg>
