<?xml version="1.0" encoding="UTF-8" ?>
<!DOCTYPE svg PUBLIC "-//W3C//DTD SVG 1.1//EN" "http://www.w3.org/Graphics/SVG/1.1/DTD/svg11.dtd">
<svg width="72pt" height="60pt" viewBox="0 0 72 60" version="1.1" xmlns="http://www.w3.org/2000/svg">
<g id="#e04242f6">
<path fill="#e04242" opacity="0.96" d=" M 24.24 0.00 L 47.78 0.00 C 50.13 2.58 48.81 6.38 49.16 9.52 C 48.73 9.45 47.87 9.30 47.44 9.22 C 46.98 6.93 47.46 4.52 46.84 2.25 C 39.66 1.69 32.32 1.65 25.15 2.28 C 24.55 4.44 24.97 6.74 24.66 8.95 C 24.36 10.28 22.54 9.28 22.92 8.21 C 22.81 6.07 22.84 3.93 22.85 1.78 C 23.20 1.34 23.89 0.45 24.24 0.00 Z" />
<path fill="#e04242" opacity="0.96" d=" M 0.00 14.38 C 2.66 12.53 5.98 13.14 9.01 13.07 C 28.71 13.12 48.41 13.05 68.10 13.09 C 69.52 13.01 70.75 13.78 72.00 14.31 L 72.00 26.61 C 65.55 33.16 56.13 35.27 47.37 36.73 C 35.88 38.49 23.98 37.50 12.91 33.98 C 8.17 32.48 3.57 30.23 0.00 26.70 L 0.00 14.38 M 2.26 16.99 C 2.24 19.87 1.98 22.81 2.46 25.66 C 4.32 28.11 7.30 29.30 10.02 30.52 C 26.63 37.05 45.73 37.11 62.30 30.43 C 64.94 29.25 67.83 28.05 69.56 25.61 C 69.93 22.10 70.02 18.50 69.32 15.03 C 47.87 15.02 26.42 15.02 4.97 15.02 C 3.64 14.83 1.88 15.26 2.26 16.99 Z" />
<path fill="#e04242" opacity="0.96" d=" M 0.00 33.78 C 0.56 33.78 1.68 33.78 2.24 33.78 C 2.35 41.47 2.03 49.18 2.35 56.87 C 2.53 58.70 4.80 57.85 5.99 58.11 C 27.23 57.87 48.49 58.48 69.71 57.79 C 69.80 49.80 69.79 41.81 69.71 33.83 C 70.28 33.80 71.43 33.74 72.00 33.71 L 72.00 59.09 L 71.23 58.73 C 70.99 59.04 70.51 59.68 70.27 60.00 L 1.85 60.00 C 1.59 59.70 1.07 59.10 0.81 58.80 L 0.00 59.14 L 0.00 33.78 Z" />
<path fill="#e04242" opacity="0.96" d=" M 29.61 40.83 C 34.12 41.54 38.81 40.38 43.20 41.66 L 42.00 42.95 C 37.91 43.31 33.78 43.12 29.68 43.04 C 29.66 42.49 29.63 41.38 29.61 40.83 Z" />
</g>
<g id="#6e212179">
<path fill="#6e2121" opacity="0.47" d=" M 0.00 59.14 L 0.81 58.80 C 1.07 59.10 1.59 59.70 1.85 60.00 L 0.00 60.00 L 0.00 59.14 Z" />
<path fill="#6e2121" opacity="0.47" d=" M 70.27 60.00 C 70.51 59.68 70.99 59.04 71.23 58.73 L 72.00 59.09 L 72.00 60.00 L 70.27 60.00 Z" />
</g>
</svg>
