<?xml version="1.0" encoding="UTF-8" ?>
<!DOCTYPE svg PUBLIC "-//W3C//DTD SVG 1.1//EN" "http://www.w3.org/Graphics/SVG/1.1/DTD/svg11.dtd">
<svg width="113pt" height="90pt" viewBox="0 0 113 90" version="1.1" xmlns="http://www.w3.org/2000/svg">
<g id="#ffd800ff">
<path fill="#ffd800" opacity="1.00" d=" M 6.69 0.00 L 64.41 0.00 C 67.90 0.45 71.07 3.32 71.10 6.98 C 71.36 12.98 71.10 19.00 71.19 25.00 C 82.49 25.03 93.79 24.98 105.08 25.01 C 107.65 24.89 110.20 26.28 111.60 28.42 C 112.54 30.46 112.39 32.80 112.47 35.00 C 112.42 46.66 112.47 58.33 112.45 69.99 C 112.35 72.23 112.42 74.85 110.52 76.42 C 108.03 78.96 104.25 78.77 100.99 78.83 C 100.98 82.56 100.98 86.28 100.98 90.00 L 100.37 90.00 C 95.31 86.65 90.54 82.85 85.51 79.46 C 84.19 78.51 82.48 78.83 80.97 78.72 C 70.62 78.75 60.27 78.80 49.93 78.73 C 46.05 78.83 41.98 76.08 41.77 71.97 C 41.21 65.74 41.69 59.45 41.54 53.20 C 37.17 53.19 32.80 53.18 28.44 53.21 C 23.07 57.12 17.65 60.96 12.25 64.84 C 12.25 60.98 12.25 57.12 12.25 53.25 C 8.84 53.14 4.69 53.64 2.29 50.66 C 0.48 48.93 0.91 46.25 0.80 44.00 C 0.91 31.32 0.69 18.65 0.90 5.98 C 0.84 2.76 3.94 0.79 6.69 0.00 M 4.09 7.91 C 4.03 20.31 4.05 32.71 4.09 45.11 C 3.93 47.00 5.05 49.07 7.05 49.39 C 10.00 49.65 12.97 49.47 15.93 49.49 C 15.94 52.21 15.94 54.93 15.95 57.65 C 19.72 54.94 23.50 52.27 27.24 49.52 C 31.97 49.48 36.70 49.51 41.43 49.50 C 41.53 43.84 41.24 38.18 41.56 32.53 C 41.59 28.62 44.97 24.80 49.00 25.00 C 55.17 24.97 61.33 25.02 67.50 25.00 C 67.43 19.02 67.64 13.03 67.42 7.06 C 67.38 4.86 65.09 3.43 63.04 3.70 C 44.70 3.70 26.35 3.65 8.01 3.72 C 5.73 3.53 3.88 5.70 4.09 7.91 M 45.96 31.00 C 45.99 44.33 45.81 57.66 45.90 70.99 C 45.60 72.76 47.19 74.40 48.97 74.25 C 61.14 74.41 73.31 74.28 85.48 74.31 C 89.37 76.94 93.08 79.82 97.00 82.41 C 97.00 79.72 97.00 77.02 97.02 74.33 C 100.01 74.28 103.01 74.47 106.00 74.20 C 108.42 73.93 108.87 70.97 108.84 69.01 C 108.82 57.66 108.82 46.30 108.84 34.95 C 108.89 33.30 108.44 31.70 108.00 30.13 C 106.74 29.59 105.48 28.84 104.05 28.99 C 85.98 29.01 67.91 28.98 49.84 29.01 C 48.21 28.75 47.18 30.22 45.96 31.00 Z" />
<path fill="#ffd800" opacity="1.00" d=" M 11.95 9.27 C 27.59 8.63 43.30 9.21 58.96 8.98 C 60.64 9.07 63.42 8.50 63.59 10.95 C 63.18 13.18 60.73 12.59 59.11 12.71 C 43.76 12.61 28.41 12.80 13.07 12.62 C 11.24 12.84 10.60 10.29 11.95 9.27 Z" />
<path fill="#ffd800" opacity="1.00" d=" M 12.01 18.25 C 24.95 17.65 37.96 18.20 50.93 17.98 C 52.85 18.16 56.00 17.22 56.43 19.95 C 55.97 22.13 53.65 21.63 52.02 21.71 C 39.03 21.61 26.02 21.81 13.03 21.61 C 11.21 21.89 10.58 19.12 12.01 18.25 Z" />
<path fill="#ffd800" opacity="1.00" d=" M 11.96 27.26 C 18.95 26.73 26.01 27.02 33.02 27.10 C 35.28 26.94 35.15 30.82 32.95 30.62 C 26.33 30.75 19.70 30.75 13.08 30.62 C 11.24 30.88 10.60 28.26 11.96 27.26 Z" />
<path fill="#ffd800" opacity="1.00" d=" M 53.25 36.40 C 54.74 35.74 56.44 36.08 58.02 35.98 C 71.35 36.10 84.69 35.84 98.01 36.11 C 100.18 36.16 99.83 39.88 97.73 39.62 C 83.50 39.77 69.26 39.68 55.04 39.67 C 53.20 40.11 51.69 37.73 53.25 36.40 Z" />
<path fill="#ffd800" opacity="1.00" d=" M 52.55 47.03 C 52.53 45.12 54.51 44.86 55.96 44.99 C 69.00 45.07 82.04 44.87 95.07 45.10 C 95.36 45.58 95.93 46.55 96.21 47.03 C 95.36 48.01 94.46 49.01 93.01 48.69 C 81.00 48.71 68.98 48.66 56.96 48.71 C 55.38 48.59 53.01 49.17 52.55 47.03 Z" />
<path fill="#ffd800" opacity="1.00" d=" M 53.30 54.35 C 63.79 53.52 74.45 54.26 85.01 53.98 C 86.99 54.18 90.33 53.19 90.65 56.07 C 90.11 57.28 89.21 57.82 87.94 57.68 C 76.94 57.69 65.94 57.73 54.95 57.66 C 53.08 58.06 51.72 55.64 53.30 54.35 Z" />
<path fill="#ffd800" opacity="1.00" d=" M 53.27 63.38 C 60.73 62.47 68.42 63.28 75.97 62.98 C 77.89 63.20 81.43 62.15 81.58 65.08 C 81.30 65.44 80.73 66.18 80.45 66.54 C 72.01 66.88 63.53 66.62 55.07 66.67 C 53.20 67.11 51.67 64.75 53.27 63.38 Z" />
</g>
</svg>
