<?xml version="1.0" encoding="UTF-8" ?>
<!DOCTYPE svg PUBLIC "-//W3C//DTD SVG 1.1//EN" "http://www.w3.org/Graphics/SVG/1.1/DTD/svg11.dtd">
<svg width="103pt" height="99pt" viewBox="0 0 103 99" version="1.1" xmlns="http://www.w3.org/2000/svg">
<g id="#ffd800ff">
<path fill="#ffd800" opacity="1.00" d=" M 13.55 1.73 C 19.69 -0.05 26.82 0.96 31.72 5.27 C 37.94 10.35 40.18 19.53 37.09 26.93 C 34.17 34.49 25.99 39.55 17.92 38.74 C 9.90 38.21 2.51 31.98 1.02 24.03 C 0.73 19.82 0.36 15.27 2.41 11.41 C 4.62 6.85 8.75 3.32 13.55 1.73 M 15.18 5.09 C 9.08 6.79 4.44 12.60 4.16 18.94 C 3.46 27.27 10.69 35.12 19.05 35.13 C 28.08 35.67 36.07 26.88 34.69 17.93 C 33.83 8.87 23.87 2.25 15.18 5.09 Z" />
<path fill="#ffd800" opacity="1.00" d=" M 78.43 16.70 C 89.42 13.22 102.61 22.17 102.18 33.96 C 103.05 41.10 99.06 48.22 92.80 51.61 C 86.38 55.29 77.82 54.67 71.99 50.12 C 66.52 46.01 63.61 38.81 64.77 32.06 C 65.78 24.83 71.40 18.58 78.43 16.70 M 78.38 20.57 C 70.65 23.15 66.13 32.46 69.08 40.10 C 71.52 47.62 80.36 52.16 87.90 49.71 C 95.75 47.57 100.73 38.55 98.27 30.78 C 96.10 22.52 86.36 17.45 78.38 20.57 Z" />
<path fill="#ffd800" opacity="1.00" d=" M 41.82 24.03 C 45.69 23.08 49.81 25.56 53.78 26.08 C 55.72 26.74 59.85 26.72 58.75 29.81 C 57.05 31.57 54.51 29.80 52.50 29.59 C 48.89 28.28 44.46 28.43 41.41 26.08 C 41.51 25.57 41.72 24.54 41.82 24.03 Z" />
<path fill="#ffd800" opacity="1.00" d=" M 22.14 42.18 C 22.61 42.08 23.55 41.87 24.02 41.76 C 26.59 44.68 26.68 49.20 28.24 52.77 C 28.96 54.95 30.97 59.42 26.93 59.15 C 24.22 54.20 23.04 48.43 21.54 43.00 L 22.14 42.18 Z" />
<path fill="#ffd800" opacity="1.00" d=" M 65.45 52.46 C 66.85 50.67 69.84 53.40 68.02 54.89 C 64.69 58.62 61.30 62.33 57.68 65.76 C 56.27 66.92 54.09 64.74 55.26 63.34 C 58.46 59.55 61.98 56.01 65.45 52.46 Z" />
<path fill="#ffd800" opacity="1.00" d=" M 33.54 60.65 C 40.28 59.08 47.77 61.52 52.21 66.86 C 57.31 72.66 58.18 81.66 54.39 88.38 C 49.98 96.86 38.83 100.44 30.17 96.63 C 22.64 93.50 17.79 85.12 18.88 77.03 C 19.62 69.17 25.83 62.29 33.54 60.65 M 33.41 64.48 C 25.73 66.58 20.72 75.26 22.89 82.96 C 24.75 91.13 34.05 96.51 42.05 93.90 C 49.88 91.80 54.89 82.87 52.52 75.10 C 50.50 67.08 41.31 61.92 33.41 64.48 Z" />
</g>
</svg>
