<?xml version="1.0" encoding="UTF-8" ?>
<!DOCTYPE svg PUBLIC "-//W3C//DTD SVG 1.1//EN" "http://www.w3.org/Graphics/SVG/1.1/DTD/svg11.dtd">
<svg width="57pt" height="47pt" viewBox="0 0 57 47" version="1.1" xmlns="http://www.w3.org/2000/svg">
<g id="#ffd800ff">
<path fill="#ffd800" opacity="1.00" d=" M 2.08 0.00 L 54.81 0.00 C 55.15 1.20 56.00 2.15 57.00 2.85 L 57.00 34.79 C 56.20 36.32 55.10 38.14 53.09 37.94 C 45.25 38.12 37.41 37.93 29.56 38.00 C 29.56 40.33 29.56 42.67 29.56 45.00 C 32.69 45.00 35.83 45.00 38.96 45.00 C 38.98 45.50 39.03 46.50 39.06 47.00 L 17.99 47.00 C 17.99 46.50 18.00 45.50 18.01 45.00 C 21.17 45.00 24.34 45.00 27.50 45.00 C 27.50 42.67 27.50 40.33 27.50 38.00 C 19.65 37.93 11.79 38.12 3.95 37.94 C 1.98 38.15 0.89 36.38 0.00 34.94 L 0.00 2.72 C 1.19 2.34 1.84 1.15 2.08 0.00 M 2.11 4.05 C 1.83 11.69 2.09 19.35 2.00 27.00 C 19.67 27.00 37.33 27.00 55.00 27.00 C 54.91 19.36 55.17 11.70 54.89 4.07 C 54.86 2.52 53.42 1.80 52.01 2.02 C 36.31 1.98 20.60 1.98 4.90 2.02 C 3.54 1.82 2.13 2.56 2.11 4.05 M 1.96 29.00 C 1.96 31.31 1.89 33.68 2.75 35.87 C 19.91 35.99 37.07 35.98 54.24 35.88 C 55.11 33.69 55.04 31.31 55.04 29.00 C 37.35 29.00 19.65 29.00 1.96 29.00 Z" />
<path fill="#ffd800" opacity="1.00" d=" M 27.30 31.33 C 28.99 30.13 30.86 32.02 29.67 33.70 C 28.01 34.85 26.16 32.98 27.30 31.33 Z" />
</g>
</svg>
