<?xml version="1.0" encoding="UTF-8" ?>
<!DOCTYPE svg PUBLIC "-//W3C//DTD SVG 1.1//EN" "http://www.w3.org/Graphics/SVG/1.1/DTD/svg11.dtd">
<svg width="35pt" height="59pt" viewBox="0 0 35 59" version="1.1" xmlns="http://www.w3.org/2000/svg">
<g id="#ffd800ff">
<path fill="#ffd800" opacity="1.00" d=" M 1.68 0.00 L 33.11 0.00 C 33.15 1.34 33.78 1.90 35.00 1.68 L 35.00 57.15 C 33.64 57.16 33.08 57.78 33.30 59.00 L 1.85 59.00 C 1.84 57.64 1.22 57.08 0.00 57.30 L 0.00 1.89 C 1.34 1.85 1.90 1.22 1.68 0.00 M 3.15 2.19 C 1.61 2.81 2.16 4.75 1.99 6.03 C 2.07 22.36 1.89 38.69 2.07 55.01 C 1.89 56.65 3.70 57.14 4.98 56.94 C 13.68 56.91 22.38 57.02 31.08 56.88 C 33.20 57.07 33.01 54.45 33.01 53.05 C 32.93 36.67 33.12 20.29 32.92 3.91 C 33.04 1.80 30.48 1.99 29.06 1.99 C 20.42 2.14 11.77 1.74 3.15 2.19 Z" />
<path fill="#ffd800" opacity="1.00" d=" M 10.15 6.02 C 15.04 5.99 19.94 6.00 24.83 6.01 C 24.83 6.51 24.83 7.49 24.83 7.99 C 19.95 8.01 15.06 8.00 10.18 7.99 C 10.17 7.50 10.15 6.51 10.15 6.02 Z" />
<path fill="#ffd800" opacity="1.00" d=" M 16.43 50.49 C 17.53 48.63 20.36 51.56 18.51 52.58 C 17.25 54.09 14.86 51.69 16.43 50.49 Z" />
</g>
</svg>
