<?xml version="1.0" encoding="UTF-8" ?>
<!DOCTYPE svg PUBLIC "-//W3C//DTD SVG 1.1//EN" "http://www.w3.org/Graphics/SVG/1.1/DTD/svg11.dtd">
<svg width="41pt" height="60pt" viewBox="0 0 41 60" version="1.1" xmlns="http://www.w3.org/2000/svg">
<g id="#c33a3ad7">
<path fill="#c33a3a" opacity="0.84" d=" M 17.15 0.00 L 23.93 0.00 C 32.43 1.45 39.69 8.34 41.00 16.96 L 41.00 24.55 C 40.11 29.60 36.94 33.75 33.26 37.15 C 30.78 39.25 29.94 42.41 29.20 45.43 C 25.75 44.75 22.16 44.40 18.96 42.86 L 18.22 41.08 C 21.40 41.27 24.52 42.01 27.57 42.89 C 28.06 36.75 34.46 34.06 36.98 28.97 C 40.02 22.90 39.43 15.12 35.38 9.63 C 31.13 3.74 23.15 0.84 16.10 2.68 C 11.53 3.89 7.35 6.80 4.86 10.86 C 0.42 17.80 1.33 27.88 7.51 33.52 C 10.72 36.48 13.98 40.06 13.28 44.81 C 18.57 46.33 24.50 46.48 29.36 48.97 L 28.98 50.37 C 23.77 49.88 18.71 48.35 13.61 47.26 C 9.27 46.68 12.07 41.04 9.24 38.84 C 5.28 34.70 0.92 30.46 0.00 24.51 L 0.00 16.90 C 1.49 8.36 8.64 1.45 17.15 0.00 Z" />
<path fill="#c33a3a" opacity="0.84" d=" M 11.83 49.73 C 17.54 50.61 23.22 51.95 28.76 53.55 C 28.88 54.01 29.13 54.93 29.25 55.39 C 23.49 55.02 17.92 53.24 12.33 51.94 C 12.21 51.39 11.96 50.28 11.83 49.73 Z" />
<path fill="#c33a3a" opacity="0.84" d=" M 13.48 55.20 C 17.00 55.59 20.44 56.54 23.88 57.33 C 25.59 57.53 26.94 58.52 27.77 60.00 L 25.04 60.00 C 20.85 59.19 16.71 58.14 12.57 57.11 C 12.80 56.63 13.26 55.68 13.48 55.20 Z" />
</g>
</svg>
