<?xml version="1.0" encoding="UTF-8" ?>
<!DOCTYPE svg PUBLIC "-//W3C//DTD SVG 1.1//EN" "http://www.w3.org/Graphics/SVG/1.1/DTD/svg11.dtd">
<svg width="73pt" height="60pt" viewBox="0 0 73 60" version="1.1" xmlns="http://www.w3.org/2000/svg">
<g id="#c63b3bda">
<path fill="#c63b3b" opacity="0.85" d=" M 0.27 0.00 L 72.65 0.00 C 72.74 0.05 72.91 0.14 73.00 0.18 L 73.00 45.65 C 71.63 46.91 69.79 47.10 68.01 47.05 C 57.81 46.97 47.60 47.01 37.39 47.01 C 37.42 47.94 37.48 49.79 37.51 50.72 L 35.53 50.74 C 35.53 49.80 35.53 47.93 35.52 47.00 C 25.35 47.03 15.17 46.95 4.99 47.05 C 3.23 47.14 1.47 46.82 0.00 45.80 L 0.00 0.23 C 0.07 0.17 0.20 0.06 0.27 0.00 M 2.10 2.08 C 1.88 15.42 2.07 28.75 1.98 42.08 C 1.80 43.35 2.10 45.25 3.86 44.92 C 25.63 44.95 47.41 44.97 69.18 44.91 C 70.95 45.18 71.20 43.30 71.01 42.00 C 70.94 28.71 71.10 15.40 70.92 2.11 C 47.98 1.92 25.03 1.96 2.10 2.08 Z" />
<path fill="#c63b3b" opacity="0.85" d=" M 5.47 5.61 C 26.13 5.53 46.80 5.55 67.46 5.59 C 67.42 17.49 67.44 29.38 67.45 41.28 C 46.82 41.31 26.18 41.31 5.55 41.28 C 5.52 29.39 5.67 17.50 5.47 5.61 M 7.83 39.18 C 27.08 39.29 46.36 39.42 65.62 39.11 C 65.18 28.59 65.58 18.05 65.41 7.53 C 46.13 7.63 26.85 7.60 7.57 7.54 C 7.75 18.08 7.20 28.71 7.83 39.18 Z" />
<path fill="#c63b3b" opacity="0.85" d=" M 22.34 60.00 C 22.42 57.44 21.60 53.52 24.87 52.60 C 29.57 52.07 34.32 52.58 39.05 52.42 C 42.32 52.49 45.68 52.01 48.89 52.82 C 51.32 54.42 50.49 57.56 50.67 60.00 L 22.34 60.00 M 23.89 57.83 C 32.28 58.11 40.69 58.08 49.07 57.85 C 48.50 56.42 47.95 54.25 45.95 54.47 C 39.65 54.40 33.35 54.41 27.05 54.46 C 25.00 54.17 24.46 56.38 23.89 57.83 Z" />
</g>
</svg>
