<?xml version="1.0" encoding="UTF-8" ?>
<!DOCTYPE svg PUBLIC "-//W3C//DTD SVG 1.1//EN" "http://www.w3.org/Graphics/SVG/1.1/DTD/svg11.dtd">
<svg width="60pt" height="60pt" viewBox="0 0 60 60" version="1.1" xmlns="http://www.w3.org/2000/svg">
<g id="#ce3d3de3">
<path fill="#ce3d3d" opacity="0.89" d=" M 11.81 0.00 L 14.49 0.00 C 19.47 4.93 24.55 9.89 28.76 15.51 C 26.12 15.81 24.49 13.71 22.85 12.08 C 19.60 8.64 16.44 5.12 13.10 1.77 C 9.24 5.44 5.46 9.19 1.82 13.07 C 2.79 14.13 3.75 15.20 4.72 16.26 C 7.66 13.80 9.72 9.54 13.92 9.23 C 11.98 12.51 9.10 15.01 6.41 17.65 C 7.73 18.99 9.06 20.33 10.38 21.67 C 11.97 20.66 14.10 16.53 15.28 19.83 C 14.31 21.05 13.21 22.15 12.14 23.27 C 13.11 24.91 17.24 26.96 14.10 28.39 C 9.30 23.80 4.16 19.44 0.00 14.24 L 0.00 11.90 C 3.59 7.61 7.64 3.72 11.81 0.00 Z" />
<path fill="#ce3d3d" opacity="0.89" d=" M 46.16 0.00 L 48.83 0.00 C 52.69 3.57 56.38 7.32 60.00 11.13 L 60.00 14.43 C 48.32 26.27 36.66 38.12 24.90 49.89 C 22.82 51.89 20.93 54.39 18.00 55.14 C 12.53 56.80 7.05 58.42 1.56 60.00 L 0.00 60.00 L 0.00 58.35 C 1.54 53.19 3.33 48.11 4.92 42.97 C 5.59 40.28 7.58 38.31 9.51 36.45 C 21.79 24.37 33.78 11.98 46.16 0.00 M 40.79 8.34 C 44.33 12.19 48.10 15.81 51.85 19.46 C 53.90 17.30 56.15 15.34 58.07 13.05 C 55.42 8.74 50.97 5.69 47.63 1.86 C 45.21 3.86 43.00 6.11 40.79 8.34 M 9.09 40.24 C 9.79 40.33 11.18 40.51 11.88 40.60 C 21.58 31.11 31.05 21.37 40.74 11.86 C 40.33 11.45 39.50 10.63 39.09 10.22 C 29.16 20.30 19.14 30.28 9.09 40.24 M 40.00 15.93 C 31.09 24.93 22.08 33.84 13.15 42.83 C 13.15 44.15 13.14 45.48 13.14 46.81 C 14.48 46.82 15.82 46.84 17.16 46.85 C 26.91 37.08 36.86 27.50 46.52 17.64 C 45.32 16.42 44.16 15.14 42.80 14.10 C 41.53 13.87 40.89 15.31 40.00 15.93 M 19.13 48.07 C 19.42 49.21 19.71 50.34 20.00 51.48 C 30.13 41.45 39.97 31.12 50.12 21.11 C 49.65 20.69 48.71 19.86 48.25 19.45 C 38.49 28.93 28.90 38.60 19.13 48.07 M 7.66 42.06 C 6.06 47.15 4.34 52.19 2.74 57.28 C 7.82 55.76 12.88 54.22 17.98 52.78 C 17.65 51.47 17.31 50.16 16.96 48.86 C 15.05 48.84 13.15 48.81 11.24 48.78 C 11.16 46.82 11.11 44.86 11.02 42.90 C 9.90 42.62 8.78 42.34 7.66 42.06 Z" />
<path fill="#ce3d3d" opacity="0.89" d=" M 44.20 33.08 C 44.62 32.77 45.44 32.14 45.86 31.83 C 50.39 36.65 55.43 40.98 59.72 46.02 C 59.76 46.49 59.83 47.43 59.87 47.91 C 56.67 52.45 52.42 56.22 48.36 60.00 L 45.35 60.00 C 42.45 57.46 39.92 54.55 37.20 51.83 C 35.08 49.61 32.43 47.60 31.75 44.42 C 33.61 45.27 35.25 46.50 36.80 47.82 C 37.90 46.76 38.98 45.69 40.17 44.73 C 43.42 45.91 39.35 48.05 38.35 49.63 C 39.69 50.95 41.02 52.28 42.35 53.61 C 44.94 50.95 47.48 48.22 50.47 45.98 C 50.48 46.51 50.52 47.58 50.54 48.11 C 48.66 50.90 45.90 52.97 43.70 55.50 C 44.79 56.38 45.87 57.27 46.96 58.15 C 50.71 54.62 54.34 50.97 57.92 47.27 C 53.51 42.39 48.50 38.08 44.20 33.08 Z" />
</g>
</svg>
