<?xml version="1.0" encoding="UTF-8" ?>
<!DOCTYPE svg PUBLIC "-//W3C//DTD SVG 1.1//EN" "http://www.w3.org/Graphics/SVG/1.1/DTD/svg11.dtd">
<svg width="55pt" height="58pt" viewBox="0 0 55 58" version="1.1" xmlns="http://www.w3.org/2000/svg">
<g id="#ffd800ff">
<path fill="#ffd800" opacity="1.00" d=" M 11.66 0.00 L 43.26 0.00 C 43.58 4.29 43.42 8.59 43.43 12.88 C 47.33 13.26 52.86 11.30 55.00 15.76 L 55.00 43.42 C 53.41 48.41 47.29 46.27 43.44 46.68 C 43.47 50.45 43.44 54.23 43.35 58.00 L 11.74 58.00 C 11.47 54.23 11.54 50.45 11.57 46.68 C 7.71 46.29 2.07 48.29 0.00 43.77 L 0.00 15.91 C 1.95 11.25 7.67 13.27 11.57 12.88 C 11.54 8.59 11.53 4.29 11.66 0.00 M 13.63 2.06 C 13.63 5.63 13.63 9.19 13.62 12.75 C 22.88 12.76 32.14 12.81 41.39 12.73 C 41.37 9.17 41.36 5.62 41.37 2.06 C 32.12 2.06 22.88 2.06 13.63 2.06 M 2.14 16.94 C 2.02 25.62 1.97 34.32 2.16 43.00 C 3.78 46.14 8.42 44.06 11.31 44.61 C 11.31 40.52 11.29 36.44 11.36 32.35 C 22.10 31.98 32.89 32.02 43.63 32.33 C 43.72 36.43 43.68 40.52 43.68 44.61 C 46.31 44.59 48.95 44.81 51.56 44.47 C 53.40 43.86 52.82 41.50 52.96 40.04 C 52.79 32.08 53.20 24.11 52.76 16.18 C 52.53 15.92 52.06 15.41 51.83 15.15 C 36.92 14.69 21.96 15.23 7.04 14.91 C 5.34 15.02 2.17 14.39 2.14 16.94 M 13.87 34.75 C 14.04 41.82 13.51 48.87 13.64 55.94 C 22.88 55.94 32.12 55.94 41.36 55.94 C 41.49 48.87 40.96 41.82 41.13 34.75 C 32.04 34.75 22.95 34.75 13.87 34.75 Z" />
<path fill="#ffd800" opacity="1.00" d=" M 38.99 21.14 C 40.00 19.58 42.44 21.39 41.30 22.83 C 40.29 24.37 37.85 22.57 38.99 21.14 Z" />
<path fill="#ffd800" opacity="1.00" d=" M 44.05 21.10 C 45.12 19.59 47.50 21.46 46.31 22.87 C 45.24 24.36 42.87 22.49 44.05 21.10 Z" />
</g>
</svg>
