<?xml version="1.0" encoding="UTF-8" ?>
<!DOCTYPE svg PUBLIC "-//W3C//DTD SVG 1.1//EN" "http://www.w3.org/Graphics/SVG/1.1/DTD/svg11.dtd">
<svg width="83pt" height="98pt" viewBox="0 0 83 98" version="1.1" xmlns="http://www.w3.org/2000/svg">
<g id="#ffd800ff">
<path fill="#ffd800" opacity="1.00" d=" M 40.03 0.00 L 42.88 0.00 C 43.50 4.00 43.57 8.12 43.01 12.13 C 42.51 12.23 41.51 12.42 41.00 12.52 L 40.07 11.96 C 39.29 8.03 39.63 3.96 40.03 0.00 Z" />
<path fill="#ffd800" opacity="1.00" d=" M 17.36 5.37 C 17.68 5.35 18.33 5.32 18.65 5.31 C 20.88 7.96 22.27 11.22 23.80 14.30 C 24.69 15.78 22.80 17.46 21.35 16.71 C 19.41 14.18 18.09 11.24 16.62 8.43 C 15.84 7.46 16.04 5.71 17.36 5.37 Z" />
<path fill="#ffd800" opacity="1.00" d=" M 64.37 5.30 C 65.62 5.05 66.79 5.73 66.92 7.07 C 65.62 10.25 63.92 13.28 62.08 16.18 C 61.12 17.92 57.98 16.00 59.20 14.31 C 60.73 11.22 62.11 7.94 64.37 5.30 Z" />
<path fill="#ffd800" opacity="1.00" d=" M 15.18 42.90 C 16.58 30.19 28.22 19.62 41.05 19.69 C 53.84 19.19 65.80 29.31 67.67 41.92 C 69.75 52.84 64.12 64.37 54.56 69.88 C 53.65 73.47 53.74 77.39 52.10 80.76 C 45.07 81.08 37.99 81.06 30.96 80.77 C 29.20 77.46 29.39 73.46 28.44 69.88 C 19.19 64.52 13.55 53.55 15.18 42.90 M 24.23 31.30 C 18.48 37.82 16.94 47.69 20.47 55.64 C 22.59 60.84 26.87 64.80 31.69 67.52 C 32.34 70.75 32.91 74.00 33.50 77.25 C 38.84 77.24 44.17 77.25 49.51 77.25 C 50.19 74.01 50.41 70.64 51.51 67.50 C 53.98 65.66 56.74 64.13 58.71 61.69 C 64.09 55.66 65.85 46.71 63.21 39.08 C 60.70 31.43 53.93 25.34 46.01 23.81 C 38.10 22.10 29.45 25.14 24.23 31.30 Z" />
<path fill="#ffd800" opacity="1.00" d=" M 0.54 21.91 L 1.93 21.37 C 5.03 23.08 7.97 25.12 10.67 27.42 C 12.08 28.89 9.57 31.32 8.17 29.86 C 5.39 28.12 2.65 26.27 0.19 24.09 C 0.28 23.55 0.45 22.46 0.54 21.91 Z" />
<path fill="#ffd800" opacity="1.00" d=" M 72.32 27.40 C 75.04 25.13 77.97 23.08 81.07 21.37 L 82.42 21.91 C 82.52 22.45 82.71 23.54 82.80 24.09 C 80.02 26.60 76.80 28.55 73.70 30.63 C 72.74 29.78 71.20 28.82 72.32 27.40 Z" />
<path fill="#ffd800" opacity="1.00" d=" M 33.01 83.09 C 38.26 82.26 43.72 82.73 49.04 82.81 C 50.96 82.58 50.93 86.43 49.05 86.18 C 44.40 86.48 39.72 86.31 35.06 86.28 C 33.03 86.84 31.84 84.67 33.01 83.09 Z" />
<path fill="#ffd800" opacity="1.00" d=" M 34.60 88.14 C 39.20 88.01 43.80 88.01 48.40 88.15 C 48.36 89.35 49.12 91.99 47.00 91.69 C 43.37 91.82 39.72 91.82 36.09 91.70 C 33.92 92.01 34.57 89.39 34.60 88.14 Z" />
<path fill="#ffd800" opacity="1.00" d=" M 36.72 93.59 C 39.98 93.23 43.26 93.48 46.53 93.48 C 46.66 94.60 46.77 95.72 46.87 96.84 C 43.34 96.98 39.76 97.30 36.26 96.72 C 35.96 95.58 36.12 94.54 36.72 93.59 Z" />
</g>
</svg>
