<?xml version="1.0" encoding="UTF-8" ?>
<!DOCTYPE svg PUBLIC "-//W3C//DTD SVG 1.1//EN" "http://www.w3.org/Graphics/SVG/1.1/DTD/svg11.dtd">
<svg width="79pt" height="60pt" viewBox="0 0 79 60" version="1.1" xmlns="http://www.w3.org/2000/svg">
<g id="#d64040eb">
<path fill="#d64040" opacity="0.92" d=" M 35.23 0.00 L 42.08 0.00 C 49.57 0.75 56.51 5.22 60.27 11.74 C 62.59 15.44 63.49 19.77 64.19 24.02 C 71.69 25.03 77.90 31.14 79.00 38.64 L 79.00 44.89 C 78.15 52.35 72.20 58.98 64.64 60.00 L 14.16 60.00 C 6.58 59.05 0.83 52.23 0.00 44.83 L 0.00 39.08 C 0.98 31.41 7.18 24.98 14.93 24.12 C 14.97 20.58 14.62 16.77 16.50 13.59 C 18.63 9.45 23.34 7.09 27.92 7.26 C 34.89 6.77 41.64 12.92 41.42 19.97 C 41.47 28.24 41.30 36.52 41.48 44.80 C 44.38 41.93 47.18 38.85 50.78 36.82 C 51.22 40.16 47.68 41.70 45.80 43.84 C 43.93 45.20 42.45 47.75 40.05 47.97 C 36.42 45.38 33.14 42.23 30.16 38.93 C 30.27 38.39 30.50 37.33 30.61 36.80 C 33.73 39.27 36.63 42.00 39.41 44.84 C 39.49 37.25 39.49 29.64 39.44 22.05 C 39.48 18.70 38.62 15.16 36.09 12.80 C 31.65 7.89 22.63 8.37 18.94 13.93 C 16.88 16.93 17.19 20.74 16.90 24.20 C 18.42 24.33 19.93 24.47 21.43 24.69 C 21.12 25.01 20.49 25.66 20.18 25.99 C 16.54 26.64 12.57 26.29 9.32 28.36 C 0.02 33.84 -0.44 49.41 8.57 55.42 C 12.16 57.99 16.75 58.04 20.99 58.08 C 33.33 58.05 45.67 58.05 58.01 58.08 C 62.25 58.04 66.86 57.99 70.39 55.28 C 78.10 49.98 79.03 37.80 72.92 30.95 C 70.67 28.34 67.34 27.20 64.18 26.14 C 64.07 27.44 63.97 28.74 63.87 30.05 C 63.44 30.05 62.58 30.06 62.14 30.06 C 61.82 24.92 61.79 19.53 59.38 14.84 C 56.71 8.97 51.39 4.29 45.05 2.85 C 40.75 1.56 36.26 2.60 31.87 2.27 C 30.99 -0.14 33.98 0.53 35.23 0.00 Z" />
</g>
</svg>
